<?xml version="1.0" encoding="iso-8859-1"?>
<!-- Generator: Adobe Illustrator 19.1.0, SVG Export Plug-In . SVG Version: 6.00 Build 0)  -->
<svg version="1.1" id="Capa_1" xmlns="http://www.w3.org/2000/svg" xmlns:xlink="http://www.w3.org/1999/xlink" x="0px" y="0px"
	 viewBox="0 0 172.445 172.445" style="enable-background:new 0 0 172.445 172.445;" xml:space="preserve">
<g id="XMLID_8_">
	<path id="XMLID_83_" style="fill:#020400;" d="M141.78,129.649c-1.332-4.522-4.595-7.412-8.61-9.521
		c-5.021-2.638-10.478-3.854-16.038-4.692c-4.599-0.693-9.233-1.016-14.058-1.247c0.506-0.786-0.175-2.074,1.27-2.097
		c1.137-0.018,2.034-0.272,2.339-1.493c0.359-1.437-0.743-1.982-1.75-2.596c2.71-1.806,4.641-3.957,4.311-7.416
		c-0.29-3.044-0.244-3.003,2.001-4.822c2.877-2.331,5.696-4.733,8.528-7.119c0.426-0.359,1.073-0.686,0.953-1.339
		c-0.221-1.199,0.565-1.712,1.335-2.276c5.339-3.904,9.864-8.553,13.074-14.386c2.534-4.605,3.782-9.474,2.562-14.712
		c-1.669-7.165-6.553-11.662-12.85-14.767c-7.035-3.469-14.514-4.589-22.31-3.626c-0.618,0.076-1.584,0.558-1.879-0.197
		c-0.359-0.92,0.754-0.937,1.297-1.282c1.407-0.893,1.653-2.991,0.198-3.62c-1.641-0.709-1.395-1.83-1.406-3.043
		c-0.007-0.767,0.096-1.549-0.022-2.297c-0.269-1.708,0.511-1.97,2.028-1.907c3.122,0.13,6.269,0.298,9.372-0.228
		c3.516-0.597,6.672-1.865,8.192-5.453c0.983-2.319,0.757-2.587-1.778-2.588c-5.494-0.001-10.989-0.027-16.483,0.024
		c-1.123,0.01-1.554-0.351-1.262-1.421c0.227-0.831,0.958-0.435,1.458-0.459c2.632-0.127,3.605-1.482,2.614-3.848
		c-0.229-0.546-0.242-0.882,0.052-1.38c1.493-2.529,1.911-5.364,2.293-8.214c0.154-1.146-0.146-1.636-1.386-1.627
		c-5.686,0.043-11.372,0.054-17.057,0.001c-1.283-0.012-1.517,0.538-1.385,1.623c0.26,2.152,0.571,4.285,1.373,6.322
		c0.544,1.38,1.755,2.657,0.564,4.329c-0.306,0.429,0.042,1.107,0.342,1.62c0.753,1.287,2.001,1.2,3.218,1.153
		c0.689-0.027,1.05,0.144,1.063,0.937c0.014,0.793-0.326,0.963-1.026,0.95c-1.788-0.031-3.577-0.009-5.366-0.01
		c-4.025-0.002-8.051,0.042-12.074-0.031c-1.424-0.026-1.975,0.337-1.52,1.815c0.79,2.569,2.536,4.204,4.926,5.236
		c3.192,1.379,6.58,1.287,9.96,1.338c1.637,0.025,3.815-0.806,4.77,0.261c1.007,1.124,0.2,3.293,0.319,4.999
		c0.054,0.77-0.083,1.271-0.948,1.541c-0.926,0.289-1.423,1.063-1.39,2.071c0.033,0.98,0.484,1.751,1.44,2.041
		c1.352,0.41,1.126,1.526,1.207,2.491c0.099,1.184-0.991,0.988-1.606,1.193c-6.268,2.092-12.6,4.001-18.824,6.216
		c-10.585,3.767-20.915,8.107-29.762,15.265c-11.48,9.289-16.284,21.073-13.079,35.747c2.542,11.637,8.317,21.414,17.13,29.392
		c0.945,0.856,1.164,1.397,0.206,2.373c-1.253,1.277-2.224,2.795-3.076,4.369c-2.342,4.326-3.984,9.006-4.063,13.848
		c-0.104,6.429,0.627,12.872,0.999,19.309c0.865,1.345,1.325,2.772,1.208,4.416c-0.047,0.66,0.24,1.485,1.077,1.611
		c0.914,0.137,1.359-0.491,1.545-1.319c0.128-1.6,0.188-3.215,1.086-4.635c0.033-0.741,0.067-1.481,0.1-2.222
		c-0.098-0.029-0.196-0.049-0.291-0.061c0.096,0.013,0.193,0.033,0.292,0.061c0.385-1.17,0.667-2.453,0.02-3.501
		c-0.764-1.237-1.923-2.236,0.34-3.091c0.413-0.156,0.268-0.81,0.291-1.246c0.159-3.061,0.162-6.138,0.51-9.177
		c0.208-1.822-0.748-3.509-0.342-5.263c0.833-3.595,2.479-6.79,4.891-9.607c0.759-0.887,1.276-1.057,2.321-0.323
		c4.127,2.904,8.548,5.343,13.262,7.119c2.377,0.895,3.895,1.857,2.968,4.651c-0.075,0.225,0.016,0.506,0.034,0.76
		c0.391,5.316,3.292,9.116,7.409,12.148c0.794,0.585,1.116,0.866,0.519,1.998c-1.668,3.164,0.122,5.818,3.715,5.819
		c9.391,0.003,18.783,0.001,28.174,0.006c3.855,0.002,5.551-2.609,3.776-6.051c-0.45-0.873-0.325-1.109,0.365-1.582
		c2.343-1.608,4.367-3.562,5.707-6.09c0.537-1.014,1.194-1.297,2.262-1.247c2.373,0.112,4.71-0.268,7.013-0.797
		C139.313,146.737,144.334,138.317,141.78,129.649z M89.032,121.29c-2.927,3.574-6.453,6.516-10.025,9.404
		c-1.439,1.163-2.921,2.281-4.02,3.791c-0.479,0.657-0.913,0.84-1.727,0.511c-5.019-2.029-9.876-4.358-14.64-7.576
		c9.764-5.734,20.248-7.15,30.998-7.469C89.903,120.692,89.316,120.943,89.032,121.29z M94.202,87.447
		c-0.065,0.584-0.033,1.19-0.733,1.626c-2.342,1.46-2.437,2.107-0.923,4.295c-1.074,0.521-2.221,0.946-3.221,1.597
		c-1.23,0.801-1.555,0.106-1.817-0.875c-0.047-0.175,0.084-0.43-0.002-0.557c-2.568-3.812-5.603-7.251-8.757-10.569
		c-0.706-0.742-1.707,0.121-2.231,0.869c-0.894,1.276-3.025,1.78-2.552,3.886c0.093,0.417,0.645,0.756,1.028,1.079
		c2.684,2.266,5.375,4.522,8.073,6.771c0.39,0.325,0.818,0.838,1.242,0.852c2.585,0.085,1.944,1.305,1.321,2.94
		c-0.821,2.155-0.326,4.271,1.12,6.108c0.796,1.011,1.789,1.806,2.897,2.524c-0.678,0.505-1.598,0.775-1.761,1.689
		c-0.243,1.365,0.333,2.289,1.772,2.349c0.956,0.04,1.625,0.15,1.588,1.322c-0.044,1.395-1.138,0.81-1.71,0.82
		c-8.073,0.134-16.015,1.103-23.73,3.579c-3.834,1.231-7.491,2.87-10.803,5.177c-0.929,0.647-1.484,0.746-2.4-0.08
		c-9.895-8.925-15.895-19.867-16.791-33.248c-0.511-7.636,2.406-14.22,7.622-19.773c5.744-6.115,12.9-10.112,20.435-13.528
		c9.921-4.498,20.312-7.658,30.725-10.929c0,1.793,0.095,3.455-0.036,5.098c-0.078,0.98-0.365,1.926-1.132,2.756
		c-2.47,2.673-2.557,6.011-0.264,8.819c0.511,0.626,0.513,0.883,0.024,1.517c-2.212,2.872-2.24,4.939-0.136,7.986
		c1.052,1.523,1.565,3.161,1.627,5.001C94.802,80.196,94.607,83.827,94.202,87.447z M102.034,93.448
		c1.601-2.262,1.505-2.921-0.849-4.368c-0.634-0.39-0.65-0.906-0.707-1.434c-0.423-3.937-0.657-7.885-0.444-11.846
		c0.092-1.701,0.749-3.177,1.689-4.592c1.86-2.797,1.798-4.91-0.321-7.5c-0.634-0.775-0.409-1.063,0.1-1.686
		c1.983-2.428,2.295-5.624,0.33-7.917c-1.679-1.958-1.846-4.086-1.878-6.385c-0.054-3.929-0.069-4.072,3.894-4.46
		c8.613-0.843,16.667,0.72,23.461,6.438c5.361,4.512,6.547,10.561,3.412,16.865c-1.305,2.623-2.864,4.954-5.415,6.854
		c-2.637,1.964-4.429,5.058-6.613,7.639c-0.71,0.839-1.217,1.979-2.666,1.809c-0.467-0.055-0.733,0.457-1.017,0.796
		c-2.421,2.883-4.839,5.769-7.256,8.654c-0.082,0.098-0.139,0.224-0.237,0.3c-0.898,0.702-0.017,2.69-1.562,2.651
		c-1.027-0.026-2.029-0.96-3.047-1.477C102.681,93.674,102.435,93.603,102.034,93.448z M136.362,135.866
		c-0.804,4.184-3.915,6.898-8.705,7.569c-1.321,0.185-2.764,0.793-3.952,0.289c-1.421-0.603-0.625-2.345-1.01-3.549
		c-1.197-3.738-3.479-6.617-6.491-8.988c-3.36-2.645-6.604-5.415-9.516-8.554c-0.676-0.728-1.276-1.528-2.162-2.598
		c8.845,0.643,17.26,1.197,25.119,4.745c0.578,0.261,1.121,0.602,1.665,0.93C135.599,128.297,137.198,131.517,136.362,135.866z"/>
</g>
<g>
</g>
<g>
</g>
<g>
</g>
<g>
</g>
<g>
</g>
<g>
</g>
<g>
</g>
<g>
</g>
<g>
</g>
<g>
</g>
<g>
</g>
<g>
</g>
<g>
</g>
<g>
</g>
<g>
</g>
</svg>
